<svg width="224" height="32" viewBox="0 0 224 32" fill="none" xmlns="http://www.w3.org/2000/svg">
<path d="M29.6 0.0664062H2.4C1.06667 0.0664062 0 1.13307 0 2.33307V29.6664C0 30.8664 1.06667 31.9331 2.4 31.9331H29.6C30.9333 31.9331 32 30.8664 32 29.6664V2.33307C32 1.13307 30.9333 0.0664062 29.6 0.0664062ZM9.46667 27.2664H4.8V12.0664H9.46667V27.2664ZM7.2 9.93307C5.73333 9.93307 4.4 8.73307 4.4 7.13307C4.4 5.53307 5.6 4.33307 7.2 4.33307C8.66667 4.33307 10 5.53307 10 7.13307C10 8.73307 8.66667 9.93307 7.2 9.93307ZM27.3333 27.1331H22.6667V19.6664C22.6667 17.9331 22.6667 15.5331 20.1333 15.5331C17.6 15.5331 17.3333 17.5331 17.3333 19.3997V26.9997H12.6667V12.0664H17.0667V14.0664H17.2C17.8667 12.8664 19.4667 11.5331 21.7333 11.5331C26.5333 11.5331 27.4667 14.7331 27.4667 18.8664V27.1331H27.3333Z" fill="#006BAB"/>
<rect opacity="0.01" x="48.5647" width="30.8706" height="32" fill="white"/>
<path fill-rule="evenodd" clip-rule="evenodd" d="M58.2252 2.09301C59.718 2.0249 60.1946 2.00879 63.9956 2.00879C67.7966 2.00879 68.2732 2.0249 69.7659 2.09301C71.2556 2.16096 72.273 2.39757 73.1632 2.74357C74.0836 3.10118 74.8641 3.57973 75.6422 4.35779C76.4202 5.1359 76.8988 5.9164 77.2564 6.83673C77.6024 7.72696 77.839 8.74434 77.9069 10.234C77.9751 11.7268 77.9912 12.2034 77.9912 16.0044C77.9912 19.8053 77.9751 20.282 77.9069 21.7747C77.839 23.2644 77.6024 24.2818 77.2564 25.172C76.8988 26.0923 76.4202 26.8728 75.6422 27.651C74.8641 28.429 74.0836 28.9076 73.1632 29.2652C72.273 29.6112 71.2556 29.8478 69.7659 29.9157C68.2732 29.9838 67.7966 30 63.9956 30C60.1946 30 59.718 29.9838 58.2252 29.9157C56.7356 29.8478 55.7182 29.6112 54.8279 29.2652C53.9076 28.9076 53.1271 28.429 52.349 27.651C51.5709 26.8728 51.0924 26.0923 50.7348 25.172C50.3888 24.2818 50.1522 23.2644 50.0842 21.7747C50.0161 20.282 50 19.8053 50 16.0044C50 12.2034 50.0161 11.7268 50.0842 10.234C50.1522 8.74434 50.3888 7.72696 50.7348 6.83673C51.0924 5.9164 51.5709 5.1359 52.349 4.35779C53.1271 3.57973 53.9076 3.10118 54.8279 2.74357C55.7182 2.39757 56.7356 2.16096 58.2252 2.09301ZM69.651 4.61212C68.1752 4.54479 67.7326 4.53051 63.9956 4.53051C60.2586 4.53051 59.8159 4.54479 58.3402 4.61212C56.9756 4.67434 56.2346 4.90234 55.7414 5.09401C55.0881 5.3479 54.6219 5.65118 54.1322 6.14096C53.6424 6.63068 53.3391 7.0969 53.0852 7.75018C52.8936 8.24334 52.6656 8.9844 52.6033 10.349C52.536 11.8247 52.5217 12.2674 52.5217 16.0044C52.5217 19.7413 52.536 20.184 52.6033 21.6598C52.6656 23.0243 52.8936 23.7654 53.0852 24.2586C53.3391 24.9118 53.6424 25.3781 54.1322 25.8678C54.6219 26.3576 55.0881 26.6608 55.7414 26.9147C56.2346 27.1064 56.9756 27.3344 58.3402 27.3966C59.8158 27.464 60.2583 27.4782 63.9956 27.4782C67.7328 27.4782 68.1754 27.464 69.651 27.3966C71.0156 27.3344 71.7566 27.1064 72.2498 26.9147C72.9031 26.6608 73.3693 26.3576 73.859 25.8678C74.3488 25.3781 74.6521 24.9118 74.9059 24.2586C75.0976 23.7654 75.3256 23.0243 75.3878 21.6598C75.4552 20.184 75.4694 19.7413 75.4694 16.0044C75.4694 12.2674 75.4552 11.8247 75.3878 10.349C75.3256 8.9844 75.0976 8.24334 74.9059 7.75018C74.6521 7.0969 74.3488 6.63068 73.859 6.14096C73.3693 5.65118 72.9031 5.3479 72.2498 5.09401C71.7566 4.90234 71.0156 4.67434 69.651 4.61212Z" fill="#C5285A"/>
<path fill-rule="evenodd" clip-rule="evenodd" d="M56.8087 16.0043C56.8087 12.035 60.0264 8.81738 63.9957 8.81738C67.9649 8.81738 71.1826 12.035 71.1826 16.0043C71.1826 19.9735 67.9649 23.1912 63.9957 23.1912C60.0264 23.1912 56.8087 19.9735 56.8087 16.0043ZM59.3304 16.0043C59.3304 18.5808 61.4191 20.6695 63.9957 20.6695C66.5722 20.6695 68.6608 18.5808 68.6608 16.0043C68.6608 13.4278 66.5722 11.3391 63.9957 11.3391C61.4191 11.3391 59.3304 13.4278 59.3304 16.0043Z" fill="#C5285A"/>
<path d="M73.1459 8.5335C73.1459 9.46106 72.394 10.2129 71.4664 10.2129C70.5389 10.2129 69.787 9.46106 69.787 8.5335C69.787 7.60595 70.5389 6.854 71.4664 6.854C72.394 6.854 73.1459 7.60595 73.1459 8.5335Z" fill="#C5285A"/>
<g clip-path="url(#clip0_286_21374)">
<path d="M127.333 8.67594C127.152 8.02958 126.799 7.4444 126.312 6.98261C125.811 6.50661 125.197 6.16612 124.528 5.99327C122.024 5.33327 111.992 5.33327 111.992 5.33327C107.81 5.28569 103.629 5.49497 99.472 5.95994C98.8029 6.14556 98.1901 6.49365 97.688 6.97327C97.1946 7.44794 96.8373 8.03327 96.6506 8.67461C96.2022 11.0903 95.9844 13.5431 96 15.9999C95.984 18.4546 96.2013 20.9066 96.6506 23.3253C96.8333 23.9639 97.1893 24.5466 97.684 25.0173C98.1786 25.4879 98.7946 25.8279 99.472 26.0079C102.009 26.6666 111.992 26.6666 111.992 26.6666C116.18 26.7143 120.366 26.505 124.528 26.0399C125.197 25.8671 125.811 25.5266 126.312 25.0506C126.799 24.5889 127.152 24.0036 127.332 23.3573C127.792 20.9425 128.016 18.4887 128 16.0306C128.035 13.5621 127.811 11.0967 127.333 8.67461V8.67594ZM108.803 20.5653V11.4359L117.149 16.0013L108.803 20.5653Z" fill="#DE312D"/>
</g>
<path d="M161.327 29V17.1401H165.03L165.584 12.5181H161.327V9.56729C161.327 8.22911 161.673 7.31719 163.457 7.31719L165.734 7.31612V3.18217C165.34 3.12584 163.989 3 162.417 3C159.135 3 156.888 5.15396 156.888 9.10955V12.5181H153.176V17.1401H156.888V29H161.327Z" fill="#466ACD"/>
<path d="M203.053 27.0017C213.116 27.0017 218.62 18.6647 218.62 11.4348C218.62 11.198 218.62 10.9623 218.604 10.7276C219.675 9.9531 220.599 8.99413 221.333 7.8956C220.335 8.33805 219.276 8.62821 218.191 8.7564C219.333 8.07264 220.188 6.99722 220.596 5.73026C219.522 6.36755 218.347 6.81668 217.122 7.05826C215.426 5.25495 212.731 4.81358 210.549 5.98166C208.366 7.14973 207.239 9.63674 207.798 12.0481C203.399 11.8276 199.301 9.74981 196.523 6.33186C195.071 8.83175 195.812 12.0298 198.217 13.6353C197.346 13.6095 196.494 13.3747 195.733 12.9505C195.733 12.9729 195.733 12.9964 195.733 13.0199C195.734 15.6242 197.57 17.8674 200.123 18.3831C199.317 18.6027 198.472 18.6348 197.652 18.4769C198.369 20.7056 200.423 22.2324 202.764 22.2764C200.826 23.799 198.433 24.6255 195.969 24.6231C195.534 24.6222 195.099 24.5959 194.667 24.5441C197.169 26.1498 200.08 27.0014 203.053 26.9975" fill="#44A0F1"/>
<defs>
<clipPath id="clip0_286_21374">
<rect width="32" height="32" fill="white" transform="translate(96)"/>
</clipPath>
</defs>
</svg>
